<svg width="174" height="48" viewBox="0 0 174 48" fill="none" xmlns="http://www.w3.org/2000/svg" preserveAspectRatio="none">
<g clip-path="url(#clip0_3860_318998)">
<path d="M13.9093 4.01059C13.9093 4.01059 6.57151 5.36211 4.37349 6.85648C2.16885 8.35744 0.76971 9.05408 0.259928 14.0229C-0.0865467 15.6886 1.0257 39.9304 2.03865 42.0269C3.98509 44.6662 7.80955 46.2375 10.3916 47.2923C12.9736 48.3472 160.713 47.8769 160.848 47.9934C163.787 47.756 170.602 43.9652 171.004 43.2773C171.405 42.5917 172.606 40.6534 172.606 40.6534C172.606 40.6534 173.932 15.9062 173.802 13.7262C173.504 12.9394 173.356 9.78808 172.621 9.8606C170.231 7.9333 163.71 4.76217 162.569 4.14903C159.409 3.6326 18.0295 3.43262 13.9093 4.01278V4.01059Z" fill="#96430B"/>
<path opacity="0.16" d="M170.131 37.291C170.131 37.291 5.29044 35.4319 4.04578 35.5549C3.20056 35.6384 2.23837 38.6997 1.71094 40.6534C1.81907 41.3258 1.92942 41.8027 2.03755 42.0247C3.98399 44.664 7.80845 46.2353 10.3905 47.2901C12.9725 48.345 160.712 47.8747 160.847 47.9911C163.786 47.7538 170.601 43.9629 171.003 43.2751C171.404 42.5894 172.605 40.6512 172.605 40.6512C172.605 40.6512 172.605 40.6226 172.609 40.5698C171.492 38.8931 170.133 37.2888 170.133 37.2888L170.131 37.291Z" fill="#03033A"/>
<path opacity="0.16" d="M160.845 47.9934C160.868 47.9934 160.89 47.9868 160.909 47.9868C160.658 45.4596 160.177 43.3631 160.177 43.3631C160.177 43.3631 13.5009 39.2733 12.2563 40.8842C11.4155 41.972 11.1992 45.3805 11.1484 47.4748C16.1337 48.2901 160.717 47.8857 160.843 47.9934H160.845Z" fill="#03033A"/>
<path d="M14.214 0.351593C14.214 0.351593 8.46297 1.66796 6.32233 3.16232C4.17066 4.66329 1.24217 8.70248 0.906732 10.3639C0.569084 12.0296 1.65265 36.2714 2.64131 38.3679C4.53699 41.0072 8.26657 42.5785 10.7846 43.6333C13.3026 44.6882 160.396 44.2179 160.526 44.3344C163.39 44.097 170.035 40.3062 170.428 39.6183C170.818 38.9327 171.988 36.9944 171.988 36.9944C171.988 36.9944 173.281 12.2472 173.156 10.0672C171.743 7.90914 170.514 5.50057 168.623 3.93588C166.292 2.00858 163.315 1.10317 162.205 0.490042C159.124 -0.0285919 18.2305 -0.226376 14.214 0.351593Z" fill="url(#paint0_linear_3860_318998)"/>
<g style="mix-blend-mode:screen" opacity="0.11">
<path d="M160.185 43.363C159.141 43.062 20.2467 43.3301 16.2236 43.1631C12.2005 42.996 6.33252 38.9898 4.65532 38.4888C3.67548 38.1965 2.63826 35.733 1.94531 33.7397C2.17041 36.1307 2.41096 37.8734 2.64488 38.3701C4.54056 41.0094 8.27013 42.5807 10.7881 43.6355C13.3062 44.6904 160.399 44.2201 160.529 44.3366C163.394 44.0992 170.039 40.3084 170.431 39.6205C170.489 39.5194 170.564 39.3898 170.648 39.2469C167.399 41.1369 160.984 43.596 160.185 43.3652V43.363Z" fill="#D0F921"/>
</g>
<g style="mix-blend-mode:screen" opacity="0.11">
<path d="M172.157 33.6914C172.504 26.8766 173.252 11.7506 173.155 10.0672C171.742 7.90914 170.513 5.50057 168.622 3.93588C166.291 2.00858 163.314 1.10317 162.204 0.490042C159.124 -0.0285919 18.2297 -0.226376 14.2132 0.351593C14.2132 0.351593 8.46219 1.66576 6.32155 3.16232C4.16987 4.66329 1.24139 8.70248 0.905947 10.3639C0.797811 10.9023 0.837534 13.7987 0.972152 17.5434C7.99213 14.8931 143.188 10.6539 149.853 13.2142C155.187 15.2645 165.431 23.9604 172.155 33.6914H172.157Z" fill="#D0F921"/>
</g>
<g style="mix-blend-mode:screen" opacity="0.33">
<path d="M172.116 34.5309C172.438 28.2172 173.259 11.8231 173.155 10.0672C171.743 7.90914 170.513 5.50057 168.622 3.93588C166.292 2.00858 163.315 1.10317 162.205 0.490042C159.124 -0.0285919 18.23 -0.226376 14.2135 0.351593C14.2135 0.351593 8.46248 1.66576 6.32183 3.16232C4.17016 4.66329 1.24167 8.70248 0.906234 10.3639C0.723065 11.2737 0.961405 18.9125 1.37629 26.002L1.85076 26.3272C1.85076 26.3272 3.63169 24.679 3.12411 23.1583C2.61433 21.6376 1.85076 15.0491 2.23255 13.0208C2.61433 10.9924 7.83132 3.26341 8.72288 2.88323C9.61445 2.50304 16.8661 1.10977 17.6297 0.982304C18.3933 0.854844 160.154 1.74267 163.591 3.51614C167.027 5.2896 170.081 7.82344 170.844 10.232C171.608 12.6406 172.5 24.8043 172.5 25.3119C172.5 25.8196 170.844 30.7598 170.081 31.0147C169.317 31.2674 163.465 33.1684 162.319 34.5638L161.174 35.9571C161.174 35.9571 164.482 33.2958 169.192 33.0431C170.661 32.964 171.511 33.7617 172.116 34.5309V34.5309Z" fill="#D0F921"/>
</g>
<path d="M0.940761 19.0422C0.940761 19.0422 1.50792 20.0312 1.93384 22.5716C2.35976 25.1142 1.50792 29.2083 1.50792 29.2083C1.50792 29.2083 -0.478241 23.277 0.940761 19.0422V19.0422Z" fill="#96430B"/>
<path d="M168.427 34.0561C170.082 34.3089 170.971 36.9702 170.971 37.6031C170.971 37.713 170.916 37.9041 170.826 38.1393C171.11 38.4975 171.455 38.9436 171.812 39.4337C172.121 39.1766 172.339 38.9678 172.37 38.8711C172.498 38.4909 173.262 28.4808 172.37 28.4808C172.37 28.4808 172.624 29.4939 171.989 31.2696C171.353 33.0431 168.299 32.5376 166.39 33.1705C164.481 33.8034 160.281 36.0845 160.281 36.0845C160.281 36.0845 166.772 33.8034 168.425 34.0561H168.427Z" fill="#96430B"/>
</g>
<defs>
<linearGradient id="paint0_linear_3860_318998" x1="86.8413" y1="-1.65262" x2="87.4432" y2="47.2573" gradientUnits="userSpaceOnUse">
<stop stop-color="#FFA121"/>
<stop offset="1" stop-color="#F04500"/>
</linearGradient>
<clipPath id="clip0_3860_318998">
<rect width="174" height="48" fill="white"/>
</clipPath>
</defs>
</svg>
