<svg width="174" height="48" viewBox="0 0 174 48" fill="none" xmlns="http://www.w3.org/2000/svg" preserveAspectRatio="none">
<g clip-path="url(#clip0_3927_343764)">
<path d="M14.214 4.35159C14.214 4.35159 8.46297 5.66796 6.32233 7.16232C4.17066 8.66329 1.24217 12.7025 0.906732 14.3639C0.569084 16.0296 1.65265 40.2714 2.64131 42.3679C4.53699 45.0072 8.26657 46.5785 10.7846 47.6333C13.3026 48.6882 160.396 48.2179 160.526 48.3344C163.39 48.097 170.035 44.3062 170.428 43.6183C170.818 42.9327 171.988 40.9944 171.988 40.9944C171.988 40.9944 173.281 16.2472 173.156 14.0672C171.743 11.9091 170.514 9.50057 168.623 7.93588C166.292 6.00858 163.315 5.10317 162.205 4.49004C159.124 3.97141 18.2305 3.77362 14.214 4.35159Z" fill="url(#paint0_linear_3927_343764)"/>
<g style="mix-blend-mode:screen" opacity="0.11">
<path d="M160.185 47.363C159.141 47.062 20.2467 47.3301 16.2236 47.1631C12.2005 46.996 6.33252 42.9898 4.65532 42.4888C3.67548 42.1965 2.63826 39.733 1.94531 37.7397C2.17041 40.1307 2.41096 41.8734 2.64488 42.3701C4.54056 45.0094 8.27013 46.5807 10.7881 47.6355C13.3062 48.6904 160.399 48.2201 160.529 48.3366C163.394 48.0992 170.039 44.3084 170.431 43.6205C170.489 43.5194 170.564 43.3898 170.648 43.2469C167.399 45.1369 160.984 47.596 160.185 47.3652V47.363Z" fill="#D0F921"/>
</g>
<g style="mix-blend-mode:screen" opacity="0.11">
<path d="M172.157 37.6914C172.504 30.8766 173.252 15.7506 173.155 14.0672C171.742 11.9091 170.513 9.50057 168.622 7.93588C166.291 6.00858 163.314 5.10317 162.204 4.49004C159.124 3.97141 18.2297 3.77362 14.2132 4.35159C14.2132 4.35159 8.46219 5.66576 6.32155 7.16232C4.16987 8.66329 1.24139 12.7025 0.905947 14.3639C0.797811 14.9023 0.837534 17.7987 0.972152 21.5434C7.99213 18.8931 143.188 14.6539 149.853 17.2142C155.187 19.2645 165.431 27.9604 172.155 37.6914H172.157Z" fill="#D0F921"/>
</g>
<g style="mix-blend-mode:screen" opacity="0.33">
<path d="M172.116 38.5309C172.438 32.2172 173.259 15.8231 173.155 14.0672C171.743 11.9091 170.513 9.50057 168.622 7.93588C166.292 6.00858 163.315 5.10317 162.205 4.49004C159.124 3.97141 18.23 3.77362 14.2135 4.35159C14.2135 4.35159 8.46248 5.66576 6.32183 7.16232C4.17016 8.66329 1.24167 12.7025 0.906234 14.3639C0.723065 15.2737 0.961405 22.9125 1.37629 30.002L1.85076 30.3272C1.85076 30.3272 3.63169 28.679 3.12411 27.1583C2.61433 25.6376 1.85076 19.0491 2.23255 17.0208C2.61433 14.9924 7.83132 7.26341 8.72288 6.88323C9.61445 6.50304 16.8661 5.10977 17.6297 4.9823C18.3933 4.85484 160.154 5.74267 163.591 7.51614C167.027 9.2896 170.081 11.8234 170.844 14.232C171.608 16.6406 172.5 28.8043 172.5 29.3119C172.5 29.8196 170.844 34.7598 170.081 35.0147C169.317 35.2674 163.465 37.1684 162.319 38.5638L161.174 39.9571C161.174 39.9571 164.482 37.2958 169.192 37.0431C170.661 36.964 171.511 37.7617 172.116 38.5309V38.5309Z" fill="#D0F921"/>
</g>
<path d="M0.941406 23.0422C0.941406 23.0422 1.50857 24.0312 1.93449 26.5716C2.36041 29.1142 1.50857 33.2083 1.50857 33.2083C1.50857 33.2083 1.5 31 0.941406 23.0422Z" fill="#96430B"/>
<path d="M168.427 38.0561C170.082 38.3089 171 41 171 41.5C171 41.6099 171.125 42.174 171 42.5C170.697 43.2862 170.826 42.9101 170 44C170.309 43.7429 171 43 171.989 41C172 40 172.37 36 172.37 32.4808C172.37 32.4808 172.5 33.5 171.989 35.2696C171.353 37.0431 168.299 36.5376 166.39 37.1705C164.481 37.8034 160.281 40.0845 160.281 40.0845C160.281 40.0845 166.772 37.8034 168.425 38.0561H168.427Z" fill="#96430B"/>
</g>
<defs>
<linearGradient id="paint0_linear_3927_343764" x1="86.8413" y1="2.34738" x2="87.4432" y2="51.2573" gradientUnits="userSpaceOnUse">
<stop stop-color="#FFA121"/>
<stop offset="1" stop-color="#F04500"/>
</linearGradient>
<clipPath id="clip0_3927_343764">
<rect width="174" height="44" fill="white" transform="translate(0 4)"/>
</clipPath>
</defs>
</svg>
